<mxfile host="65bd71144e">
    <diagram id="Zqic8JqSITtt4c2V2Hea" name="vpn">
        <mxGraphModel dx="768" dy="541" grid="1" gridSize="10" guides="1" tooltips="1" connect="1" arrows="1" fold="1" page="1" pageScale="1" pageWidth="827" pageHeight="1169" math="0" shadow="0">
            <root>
                <mxCell id="0"/>
                <mxCell id="1" parent="0"/>
                <mxCell id="xivCrZjLFKMXbqiF6weL-1" value="VPN" style="text;html=1;strokeColor=none;fillColor=none;align=center;verticalAlign=bottom;whiteSpace=wrap;rounded=0;fontSize=14;" parent="1" vertex="1">
                    <mxGeometry x="360" y="280" width="40" height="20" as="geometry"/>
                </mxCell>
            </root>
        </mxGraphModel>
    </diagram>
    <diagram id="LpFoA9bvL5CVX6Vai69h" name="testing">
        <mxGraphModel dx="768" dy="541" grid="1" gridSize="10" guides="1" tooltips="1" connect="1" arrows="1" fold="1" page="1" pageScale="1" pageWidth="827" pageHeight="1169" background="#ffffff" math="0" shadow="0">
            <root>
                <mxCell id="0"/>
                <mxCell id="1" parent="0"/>
                <mxCell id="dZqDCKcMWKSOWL1aF3Yy-13" value="" style="rounded=0;whiteSpace=wrap;html=1;strokeColor=none;strokeWidth=2;fontSize=24;fontColor=#000000;fillColor=#FFFFFF;" parent="1" vertex="1">
                    <mxGeometry x="80" y="60" width="620" height="380" as="geometry"/>
                </mxCell>
                <mxCell id="dZqDCKcMWKSOWL1aF3Yy-1" value="&lt;font color=&quot;#000000&quot; style=&quot;font-size: 14px;&quot;&gt;The 1st terminal&amp;nbsp;&lt;br&gt;&lt;br&gt;&lt;b&gt;sudo ./app-client&lt;/b&gt;&lt;br&gt;&lt;/font&gt;" style="rounded=1;whiteSpace=wrap;html=1;strokeColor=#000000;fillColor=#FFFFFF;strokeWidth=2;" parent="1" vertex="1">
                    <mxGeometry x="440" y="120" width="140" height="80" as="geometry"/>
                </mxCell>
                <mxCell id="dZqDCKcMWKSOWL1aF3Yy-3" style="edgeStyle=orthogonalEdgeStyle;html=1;exitX=1;exitY=0.5;exitDx=0;exitDy=0;entryX=0;entryY=0.5;entryDx=0;entryDy=0;fontSize=12;fontColor=#000000;strokeWidth=2;strokeColor=#000000;" parent="1" source="dZqDCKcMWKSOWL1aF3Yy-2" target="dZqDCKcMWKSOWL1aF3Yy-1" edge="1">
                    <mxGeometry relative="1" as="geometry"/>
                </mxCell>
                <mxCell id="dZqDCKcMWKSOWL1aF3Yy-2" value="&lt;font color=&quot;#000000&quot; style=&quot;&quot;&gt;&lt;span style=&quot;font-size: 14px;&quot;&gt;The 2nd terminal&amp;nbsp;&lt;/span&gt;&lt;br&gt;&lt;br&gt;&lt;b style=&quot;&quot;&gt;&lt;font style=&quot;font-size: 12px;&quot;&gt;echo &quot;hello&quot;&amp;gt;/dev/udp/10.0.0.1/1234&lt;/font&gt;&lt;/b&gt;&lt;br&gt;&lt;/font&gt;" style="rounded=1;whiteSpace=wrap;html=1;strokeColor=#000000;fillColor=#FFFFFF;strokeWidth=2;" parent="1" vertex="1">
                    <mxGeometry x="120" y="120" width="240" height="80" as="geometry"/>
                </mxCell>
                <mxCell id="dZqDCKcMWKSOWL1aF3Yy-4" value="" style="endArrow=none;dashed=1;html=1;strokeWidth=2;strokeColor=#000000;fontSize=12;fontColor=#000000;" parent="1" edge="1">
                    <mxGeometry width="50" height="50" relative="1" as="geometry">
                        <mxPoint x="100" y="240" as="sourcePoint"/>
                        <mxPoint x="680" y="240" as="targetPoint"/>
                    </mxGeometry>
                </mxCell>
                <mxCell id="dZqDCKcMWKSOWL1aF3Yy-10" style="edgeStyle=orthogonalEdgeStyle;html=1;exitX=0;exitY=0.5;exitDx=0;exitDy=0;entryX=1;entryY=0.5;entryDx=0;entryDy=0;strokeColor=#000000;strokeWidth=2;fontSize=14;fontColor=#000000;" parent="1" source="dZqDCKcMWKSOWL1aF3Yy-5" target="dZqDCKcMWKSOWL1aF3Yy-9" edge="1">
                    <mxGeometry relative="1" as="geometry"/>
                </mxCell>
                <mxCell id="dZqDCKcMWKSOWL1aF3Yy-5" value="&lt;font color=&quot;#000000&quot; style=&quot;font-size: 14px;&quot;&gt;The 1st terminal&amp;nbsp;&lt;br&gt;&lt;br&gt;&lt;b&gt;sudo ./app-server&lt;/b&gt;&lt;br&gt;&lt;/font&gt;" style="rounded=1;whiteSpace=wrap;html=1;strokeColor=#000000;fillColor=#FFFFFF;strokeWidth=2;" parent="1" vertex="1">
                    <mxGeometry x="440" y="280" width="140" height="80" as="geometry"/>
                </mxCell>
                <mxCell id="dZqDCKcMWKSOWL1aF3Yy-6" value="" style="endArrow=none;html=1;strokeColor=#000000;strokeWidth=5;fontSize=12;fontColor=#000000;" parent="1" edge="1">
                    <mxGeometry width="50" height="50" relative="1" as="geometry">
                        <mxPoint x="660" y="400" as="sourcePoint"/>
                        <mxPoint x="660" y="80" as="targetPoint"/>
                    </mxGeometry>
                </mxCell>
                <mxCell id="dZqDCKcMWKSOWL1aF3Yy-7" value="" style="endArrow=classic;startArrow=classic;html=1;strokeColor=#000000;strokeWidth=3;fontSize=12;fontColor=#000000;exitX=1;exitY=0.5;exitDx=0;exitDy=0;" parent="1" source="dZqDCKcMWKSOWL1aF3Yy-5" edge="1">
                    <mxGeometry width="50" height="50" relative="1" as="geometry">
                        <mxPoint x="430" y="380" as="sourcePoint"/>
                        <mxPoint x="660" y="320" as="targetPoint"/>
                    </mxGeometry>
                </mxCell>
                <mxCell id="dZqDCKcMWKSOWL1aF3Yy-8" value="" style="endArrow=classic;startArrow=classic;html=1;strokeColor=#000000;strokeWidth=3;fontSize=12;fontColor=#000000;exitX=1;exitY=0.5;exitDx=0;exitDy=0;" parent="1" edge="1">
                    <mxGeometry width="50" height="50" relative="1" as="geometry">
                        <mxPoint x="580" y="159.5" as="sourcePoint"/>
                        <mxPoint x="660" y="159.5" as="targetPoint"/>
                    </mxGeometry>
                </mxCell>
                <mxCell id="dZqDCKcMWKSOWL1aF3Yy-9" value="&lt;font color=&quot;#000000&quot; style=&quot;&quot;&gt;&lt;span style=&quot;font-size: 14px;&quot;&gt;The 2nd terminal&amp;nbsp;&lt;/span&gt;&lt;br&gt;&lt;br&gt;&lt;b style=&quot;&quot;&gt;&lt;font style=&quot;font-size: 14px;&quot;&gt;nc -luk 1234&lt;/font&gt;&lt;/b&gt;&lt;br&gt;&lt;/font&gt;" style="rounded=1;whiteSpace=wrap;html=1;strokeColor=#000000;fillColor=#FFFFFF;strokeWidth=2;" parent="1" vertex="1">
                    <mxGeometry x="120" y="280" width="240" height="80" as="geometry"/>
                </mxCell>
                <mxCell id="dZqDCKcMWKSOWL1aF3Yy-11" value="&lt;font size=&quot;1&quot; style=&quot;&quot;&gt;&lt;b style=&quot;&quot;&gt;&lt;u style=&quot;font-size: 24px;&quot;&gt;Client&lt;/u&gt;&lt;/b&gt;&lt;/font&gt;" style="text;html=1;strokeColor=none;fillColor=none;align=center;verticalAlign=middle;whiteSpace=wrap;rounded=0;strokeWidth=2;fontSize=14;fontColor=#000000;" parent="1" vertex="1">
                    <mxGeometry x="350" y="70" width="90" height="50" as="geometry"/>
                </mxCell>
                <mxCell id="dZqDCKcMWKSOWL1aF3Yy-12" value="&lt;font size=&quot;1&quot; style=&quot;&quot;&gt;&lt;b style=&quot;&quot;&gt;&lt;u style=&quot;font-size: 24px;&quot;&gt;Server&lt;/u&gt;&lt;/b&gt;&lt;/font&gt;" style="text;html=1;strokeColor=none;fillColor=none;align=center;verticalAlign=middle;whiteSpace=wrap;rounded=0;strokeWidth=2;fontSize=14;fontColor=#000000;" parent="1" vertex="1">
                    <mxGeometry x="350" y="360" width="90" height="50" as="geometry"/>
                </mxCell>
                <mxCell id="dZqDCKcMWKSOWL1aF3Yy-14" value="Lan" style="text;html=1;strokeColor=none;fillColor=none;align=center;verticalAlign=middle;whiteSpace=wrap;rounded=0;strokeWidth=2;fontSize=24;fontColor=#000000;" parent="1" vertex="1">
                    <mxGeometry x="630" y="400" width="60" height="30" as="geometry"/>
                </mxCell>
            </root>
        </mxGraphModel>
    </diagram>
    <diagram id="3_8uMYqXD7WGEC1r_juf" name="第 5 页">
        <mxGraphModel dx="993" dy="731" grid="1" gridSize="10" guides="1" tooltips="1" connect="1" arrows="1" fold="1" page="1" pageScale="1" pageWidth="827" pageHeight="1169" background="#ffffff" math="0" shadow="0">
            <root>
                <mxCell id="0"/>
                <mxCell id="1" parent="0"/>
                <mxCell id="bsSO3kbQTR8HCDqmFECx-67" value="" style="rounded=0;whiteSpace=wrap;html=1;glass=0;sketch=0;strokeColor=none;strokeWidth=2;fontSize=18;fontColor=#000000;fillColor=#FFFFFF;" parent="1" vertex="1">
                    <mxGeometry x="60" y="20" width="740" height="680" as="geometry"/>
                </mxCell>
                <mxCell id="bsSO3kbQTR8HCDqmFECx-7" style="edgeStyle=none;html=1;exitX=0.5;exitY=1;exitDx=0;exitDy=0;entryX=0.5;entryY=0;entryDx=0;entryDy=0;fontSize=14;fontColor=#000000;strokeColor=#000000;strokeWidth=2;" parent="1" source="bsSO3kbQTR8HCDqmFECx-1" target="bsSO3kbQTR8HCDqmFECx-4" edge="1">
                    <mxGeometry relative="1" as="geometry"/>
                </mxCell>
                <mxCell id="bsSO3kbQTR8HCDqmFECx-1" value="&lt;font style=&quot;font-size: 14px;&quot; color=&quot;#000000&quot;&gt;app A&lt;/font&gt;" style="rounded=1;whiteSpace=wrap;html=1;fillColor=#FFFFFF;strokeColor=#000000;strokeWidth=2;" parent="1" vertex="1">
                    <mxGeometry x="80" y="81" width="120" height="40" as="geometry"/>
                </mxCell>
                <mxCell id="bsSO3kbQTR8HCDqmFECx-20" style="edgeStyle=orthogonalEdgeStyle;html=1;exitX=0.5;exitY=0;exitDx=0;exitDy=0;entryX=0.214;entryY=1;entryDx=0;entryDy=0;entryPerimeter=0;strokeColor=#000000;strokeWidth=2;fontSize=13;fontColor=#000000;startArrow=classic;startFill=1;endArrow=none;endFill=0;" parent="1" source="bsSO3kbQTR8HCDqmFECx-2" target="bsSO3kbQTR8HCDqmFECx-6" edge="1">
                    <mxGeometry relative="1" as="geometry"/>
                </mxCell>
                <mxCell id="bsSO3kbQTR8HCDqmFECx-2" value="&lt;font style=&quot;font-size: 14px;&quot; color=&quot;#000000&quot;&gt;enp3s0 driver&lt;br&gt;(192.168.2.112)&lt;br&gt;&lt;/font&gt;" style="rounded=1;whiteSpace=wrap;html=1;strokeColor=#000000;fillColor=#FFFFFF;strokeWidth=2;" parent="1" vertex="1">
                    <mxGeometry x="80" y="563" width="120" height="40" as="geometry"/>
                </mxCell>
                <mxCell id="bsSO3kbQTR8HCDqmFECx-11" style="edgeStyle=none;html=1;exitX=0.5;exitY=0;exitDx=0;exitDy=0;entryX=0.786;entryY=0.983;entryDx=0;entryDy=0;entryPerimeter=0;strokeColor=#000000;strokeWidth=2;fontSize=14;fontColor=#000000;startArrow=classic;startFill=1;endArrow=none;endFill=0;" parent="1" source="bsSO3kbQTR8HCDqmFECx-3" target="bsSO3kbQTR8HCDqmFECx-6" edge="1">
                    <mxGeometry relative="1" as="geometry"/>
                </mxCell>
                <mxCell id="bsSO3kbQTR8HCDqmFECx-22" style="edgeStyle=orthogonalEdgeStyle;html=1;exitX=0.5;exitY=1;exitDx=0;exitDy=0;entryX=0.5;entryY=0;entryDx=0;entryDy=0;strokeColor=#000000;strokeWidth=2;fontSize=13;fontColor=#000000;startArrow=none;startFill=0;endArrow=classic;endFill=1;" parent="1" source="bsSO3kbQTR8HCDqmFECx-3" target="bsSO3kbQTR8HCDqmFECx-12" edge="1">
                    <mxGeometry relative="1" as="geometry">
                        <Array as="points">
                            <mxPoint x="300" y="630"/>
                            <mxPoint x="390" y="630"/>
                            <mxPoint x="390" y="50"/>
                            <mxPoint x="300" y="50"/>
                        </Array>
                    </mxGeometry>
                </mxCell>
                <mxCell id="bsSO3kbQTR8HCDqmFECx-3" value="&lt;font style=&quot;font-size: 14px;&quot; color=&quot;#000000&quot;&gt;tun0 driver&lt;br&gt;(10.0.0.2)&lt;br&gt;&lt;/font&gt;" style="rounded=1;whiteSpace=wrap;html=1;strokeColor=#000000;fillColor=#FFFFFF;strokeWidth=2;" parent="1" vertex="1">
                    <mxGeometry x="240" y="563" width="120" height="40" as="geometry"/>
                </mxCell>
                <mxCell id="bsSO3kbQTR8HCDqmFECx-8" style="edgeStyle=none;html=1;exitX=0.5;exitY=1;exitDx=0;exitDy=0;entryX=0.5;entryY=0;entryDx=0;entryDy=0;strokeColor=#000000;strokeWidth=2;fontSize=14;fontColor=#000000;" parent="1" source="bsSO3kbQTR8HCDqmFECx-4" target="bsSO3kbQTR8HCDqmFECx-5" edge="1">
                    <mxGeometry relative="1" as="geometry"/>
                </mxCell>
                <mxCell id="bsSO3kbQTR8HCDqmFECx-4" value="&lt;font style=&quot;font-size: 14px;&quot; color=&quot;#000000&quot;&gt;Socket A&lt;/font&gt;" style="rounded=1;whiteSpace=wrap;html=1;fillColor=#FFFFFF;strokeColor=#000000;strokeWidth=2;" parent="1" vertex="1">
                    <mxGeometry x="80" y="241" width="120" height="40" as="geometry"/>
                </mxCell>
                <mxCell id="bsSO3kbQTR8HCDqmFECx-9" style="edgeStyle=none;html=1;exitX=0.5;exitY=1;exitDx=0;exitDy=0;entryX=0.214;entryY=-0.017;entryDx=0;entryDy=0;entryPerimeter=0;strokeColor=#000000;strokeWidth=2;fontSize=14;fontColor=#000000;" parent="1" source="bsSO3kbQTR8HCDqmFECx-5" target="bsSO3kbQTR8HCDqmFECx-6" edge="1">
                    <mxGeometry relative="1" as="geometry"/>
                </mxCell>
                <mxCell id="bsSO3kbQTR8HCDqmFECx-5" value="&lt;font style=&quot;font-size: 14px;&quot; color=&quot;#000000&quot;&gt;Send msg to&lt;br&gt;10.0.0.1:1234&lt;br&gt;&lt;/font&gt;" style="rounded=1;whiteSpace=wrap;html=1;fillColor=#FFFFFF;strokeColor=#000000;glass=0;strokeWidth=2;" parent="1" vertex="1">
                    <mxGeometry x="80" y="322" width="120" height="40" as="geometry"/>
                </mxCell>
                <mxCell id="bsSO3kbQTR8HCDqmFECx-6" value="&lt;font style=&quot;font-size: 14px;&quot; color=&quot;#000000&quot;&gt;Network Protocol Stack&lt;br&gt;&lt;/font&gt;" style="rounded=1;whiteSpace=wrap;html=1;strokeColor=#000000;fillColor=#FFFFFF;strokeWidth=2;" parent="1" vertex="1">
                    <mxGeometry x="80" y="421" width="280" height="60" as="geometry"/>
                </mxCell>
                <mxCell id="bsSO3kbQTR8HCDqmFECx-16" style="edgeStyle=orthogonalEdgeStyle;html=1;exitX=0.5;exitY=1;exitDx=0;exitDy=0;entryX=0.5;entryY=0;entryDx=0;entryDy=0;strokeColor=#000000;strokeWidth=2;fontSize=13;fontColor=#000000;startArrow=none;startFill=0;endArrow=classic;endFill=1;" parent="1" source="bsSO3kbQTR8HCDqmFECx-12" target="bsSO3kbQTR8HCDqmFECx-13" edge="1">
                    <mxGeometry relative="1" as="geometry"/>
                </mxCell>
                <mxCell id="bsSO3kbQTR8HCDqmFECx-12" value="&lt;font color=&quot;#000000&quot;&gt;&lt;span style=&quot;font-size: 14px;&quot;&gt;app-tun&lt;/span&gt;&lt;/font&gt;" style="rounded=1;whiteSpace=wrap;html=1;fillColor=#FFFFFF;strokeColor=#000000;strokeWidth=2;" parent="1" vertex="1">
                    <mxGeometry x="240" y="81" width="120" height="40" as="geometry"/>
                </mxCell>
                <mxCell id="bsSO3kbQTR8HCDqmFECx-17" style="edgeStyle=orthogonalEdgeStyle;html=1;exitX=0.5;exitY=1;exitDx=0;exitDy=0;entryX=0.5;entryY=0;entryDx=0;entryDy=0;strokeColor=#000000;strokeWidth=2;fontSize=13;fontColor=#000000;startArrow=none;startFill=0;endArrow=classic;endFill=1;" parent="1" source="bsSO3kbQTR8HCDqmFECx-13" target="bsSO3kbQTR8HCDqmFECx-14" edge="1">
                    <mxGeometry relative="1" as="geometry"/>
                </mxCell>
                <mxCell id="bsSO3kbQTR8HCDqmFECx-13" value="&lt;font style=&quot;font-size: 13px;&quot; color=&quot;#000000&quot;&gt;Package with a&lt;br&gt;new TCP/IP header&lt;br&gt;&lt;/font&gt;" style="rounded=1;whiteSpace=wrap;html=1;fillColor=#FFFFFF;strokeColor=#000000;strokeWidth=2;" parent="1" vertex="1">
                    <mxGeometry x="240" y="161" width="120" height="40" as="geometry"/>
                </mxCell>
                <mxCell id="bsSO3kbQTR8HCDqmFECx-18" style="edgeStyle=orthogonalEdgeStyle;html=1;exitX=0.5;exitY=1;exitDx=0;exitDy=0;entryX=0.5;entryY=0;entryDx=0;entryDy=0;strokeColor=#000000;strokeWidth=2;fontSize=13;fontColor=#000000;startArrow=none;startFill=0;endArrow=classic;endFill=1;" parent="1" source="bsSO3kbQTR8HCDqmFECx-14" target="bsSO3kbQTR8HCDqmFECx-15" edge="1">
                    <mxGeometry relative="1" as="geometry"/>
                </mxCell>
                <mxCell id="bsSO3kbQTR8HCDqmFECx-14" value="&lt;font style=&quot;font-size: 14px;&quot; color=&quot;#000000&quot;&gt;Socket B&lt;/font&gt;" style="rounded=1;whiteSpace=wrap;html=1;fillColor=#FFFFFF;strokeColor=#000000;strokeWidth=2;" parent="1" vertex="1">
                    <mxGeometry x="240" y="241" width="120" height="40" as="geometry"/>
                </mxCell>
                <mxCell id="bsSO3kbQTR8HCDqmFECx-19" style="edgeStyle=orthogonalEdgeStyle;html=1;exitX=0.5;exitY=1;exitDx=0;exitDy=0;entryX=0.786;entryY=-0.033;entryDx=0;entryDy=0;entryPerimeter=0;strokeColor=#000000;strokeWidth=2;fontSize=13;fontColor=#000000;startArrow=none;startFill=0;endArrow=classic;endFill=1;" parent="1" source="bsSO3kbQTR8HCDqmFECx-15" target="bsSO3kbQTR8HCDqmFECx-6" edge="1">
                    <mxGeometry relative="1" as="geometry"/>
                </mxCell>
                <mxCell id="bsSO3kbQTR8HCDqmFECx-15" value="&lt;font style=&quot;font-size: 14px;&quot; color=&quot;#000000&quot;&gt;Send msg to&lt;br&gt;192.168.114:5678&lt;br&gt;&lt;/font&gt;" style="rounded=1;whiteSpace=wrap;html=1;fillColor=#FFFFFF;strokeColor=#000000;glass=0;strokeWidth=2;" parent="1" vertex="1">
                    <mxGeometry x="240" y="322" width="120" height="40" as="geometry"/>
                </mxCell>
                <mxCell id="bsSO3kbQTR8HCDqmFECx-21" value="" style="endArrow=none;dashed=1;html=1;strokeWidth=2;strokeColor=#000000;fontSize=13;fontColor=#000000;" parent="1" edge="1">
                    <mxGeometry width="50" height="50" relative="1" as="geometry">
                        <mxPoint x="440" y="680" as="sourcePoint"/>
                        <mxPoint x="440" y="40" as="targetPoint"/>
                    </mxGeometry>
                </mxCell>
                <mxCell id="bsSO3kbQTR8HCDqmFECx-49" value="" style="edgeStyle=orthogonalEdgeStyle;html=1;strokeColor=#000000;strokeWidth=2;fontSize=16;fontColor=#000000;startArrow=classic;startFill=1;endArrow=none;endFill=0;startSize=3;endSize=3;" parent="1" source="bsSO3kbQTR8HCDqmFECx-24" target="bsSO3kbQTR8HCDqmFECx-33" edge="1">
                    <mxGeometry relative="1" as="geometry"/>
                </mxCell>
                <mxCell id="bsSO3kbQTR8HCDqmFECx-50" value="" style="edgeStyle=orthogonalEdgeStyle;html=1;strokeColor=#000000;strokeWidth=2;fontSize=16;fontColor=#000000;startArrow=classic;startFill=1;endArrow=none;endFill=0;startSize=3;endSize=3;" parent="1" source="bsSO3kbQTR8HCDqmFECx-24" target="bsSO3kbQTR8HCDqmFECx-33" edge="1">
                    <mxGeometry relative="1" as="geometry"/>
                </mxCell>
                <mxCell id="bsSO3kbQTR8HCDqmFECx-53" style="edgeStyle=orthogonalEdgeStyle;html=1;exitX=0.5;exitY=0;exitDx=0;exitDy=0;entryX=0.5;entryY=1;entryDx=0;entryDy=0;strokeColor=#000000;strokeWidth=2;fontSize=16;fontColor=#000000;startArrow=none;startFill=0;endArrow=classic;endFill=1;startSize=3;endSize=3;" parent="1" source="bsSO3kbQTR8HCDqmFECx-24" target="bsSO3kbQTR8HCDqmFECx-52" edge="1">
                    <mxGeometry relative="1" as="geometry"/>
                </mxCell>
                <mxCell id="bsSO3kbQTR8HCDqmFECx-24" value="&lt;font style=&quot;font-size: 14px;&quot; color=&quot;#000000&quot;&gt;app C&lt;/font&gt;" style="rounded=1;whiteSpace=wrap;html=1;fillColor=#FFFFFF;strokeColor=#000000;strokeWidth=2;" parent="1" vertex="1">
                    <mxGeometry x="480" y="240" width="120" height="40" as="geometry"/>
                </mxCell>
                <mxCell id="bsSO3kbQTR8HCDqmFECx-25" style="edgeStyle=orthogonalEdgeStyle;html=1;exitX=0.5;exitY=0;exitDx=0;exitDy=0;entryX=0.214;entryY=1;entryDx=0;entryDy=0;entryPerimeter=0;strokeColor=#000000;strokeWidth=2;fontSize=13;fontColor=#000000;startArrow=none;startFill=0;endArrow=classic;endFill=1;" parent="1" source="bsSO3kbQTR8HCDqmFECx-26" target="bsSO3kbQTR8HCDqmFECx-34" edge="1">
                    <mxGeometry relative="1" as="geometry"/>
                </mxCell>
                <mxCell id="bsSO3kbQTR8HCDqmFECx-26" value="&lt;font style=&quot;font-size: 14px;&quot; color=&quot;#000000&quot;&gt;enp3s0 driver&lt;br&gt;(192.168.2.114)&lt;br&gt;&lt;/font&gt;" style="rounded=1;whiteSpace=wrap;html=1;strokeColor=#000000;fillColor=#FFFFFF;strokeWidth=2;" parent="1" vertex="1">
                    <mxGeometry x="480" y="561" width="120" height="40" as="geometry"/>
                </mxCell>
                <mxCell id="bsSO3kbQTR8HCDqmFECx-27" style="edgeStyle=none;html=1;exitX=0.5;exitY=0;exitDx=0;exitDy=0;entryX=0.786;entryY=0.983;entryDx=0;entryDy=0;entryPerimeter=0;strokeColor=#000000;strokeWidth=2;fontSize=14;fontColor=#000000;startArrow=classic;startFill=1;endArrow=none;endFill=0;" parent="1" source="bsSO3kbQTR8HCDqmFECx-29" target="bsSO3kbQTR8HCDqmFECx-34" edge="1">
                    <mxGeometry relative="1" as="geometry"/>
                </mxCell>
                <mxCell id="bsSO3kbQTR8HCDqmFECx-61" style="edgeStyle=orthogonalEdgeStyle;html=1;exitX=0.5;exitY=1;exitDx=0;exitDy=0;entryX=0.5;entryY=0;entryDx=0;entryDy=0;strokeWidth=2;fontSize=16;fontColor=#000000;startArrow=classic;startFill=1;endArrow=none;endFill=0;startSize=3;endSize=3;strokeColor=#000000;" parent="1" source="bsSO3kbQTR8HCDqmFECx-29" target="bsSO3kbQTR8HCDqmFECx-60" edge="1">
                    <mxGeometry relative="1" as="geometry">
                        <Array as="points">
                            <mxPoint x="700" y="620"/>
                            <mxPoint x="780" y="620"/>
                            <mxPoint x="780" y="50"/>
                            <mxPoint x="700" y="50"/>
                        </Array>
                    </mxGeometry>
                </mxCell>
                <mxCell id="bsSO3kbQTR8HCDqmFECx-29" value="&lt;font style=&quot;font-size: 14px;&quot; color=&quot;#000000&quot;&gt;tun0 driver&lt;br&gt;(10.0.0.1)&lt;br&gt;&lt;/font&gt;" style="rounded=1;whiteSpace=wrap;html=1;strokeColor=#000000;fillColor=#FFFFFF;strokeWidth=2;" parent="1" vertex="1">
                    <mxGeometry x="640" y="561" width="120" height="40" as="geometry"/>
                </mxCell>
                <mxCell id="bsSO3kbQTR8HCDqmFECx-32" style="edgeStyle=none;html=1;exitX=0.5;exitY=1;exitDx=0;exitDy=0;entryX=0.214;entryY=-0.017;entryDx=0;entryDy=0;entryPerimeter=0;strokeColor=#000000;strokeWidth=2;fontSize=14;fontColor=#000000;endArrow=none;endFill=0;startArrow=classic;startFill=1;" parent="1" source="bsSO3kbQTR8HCDqmFECx-33" target="bsSO3kbQTR8HCDqmFECx-34" edge="1">
                    <mxGeometry relative="1" as="geometry"/>
                </mxCell>
                <mxCell id="bsSO3kbQTR8HCDqmFECx-33" value="&lt;font style=&quot;font-size: 13px;&quot; color=&quot;#000000&quot;&gt;Listen on&amp;nbsp;&lt;br&gt;192.168.2.114:5678&lt;br&gt;&lt;/font&gt;" style="rounded=1;whiteSpace=wrap;html=1;fillColor=#FFFFFF;strokeColor=#000000;glass=0;strokeWidth=2;" parent="1" vertex="1">
                    <mxGeometry x="480" y="320" width="120" height="40" as="geometry"/>
                </mxCell>
                <mxCell id="bsSO3kbQTR8HCDqmFECx-34" value="&lt;font style=&quot;font-size: 14px;&quot; color=&quot;#000000&quot;&gt;Network Protocol Stack&lt;br&gt;&lt;/font&gt;" style="rounded=1;whiteSpace=wrap;html=1;strokeColor=#000000;fillColor=#FFFFFF;strokeWidth=2;" parent="1" vertex="1">
                    <mxGeometry x="480" y="420" width="280" height="60" as="geometry"/>
                </mxCell>
                <mxCell id="bsSO3kbQTR8HCDqmFECx-39" style="edgeStyle=orthogonalEdgeStyle;html=1;exitX=0.5;exitY=1;exitDx=0;exitDy=0;entryX=0.5;entryY=0;entryDx=0;entryDy=0;strokeColor=#000000;strokeWidth=2;fontSize=13;fontColor=#000000;startArrow=classic;startFill=1;endArrow=none;endFill=0;" parent="1" source="bsSO3kbQTR8HCDqmFECx-40" target="bsSO3kbQTR8HCDqmFECx-42" edge="1">
                    <mxGeometry relative="1" as="geometry"/>
                </mxCell>
                <mxCell id="bsSO3kbQTR8HCDqmFECx-40" value="&lt;font style=&quot;font-size: 14px;&quot; color=&quot;#000000&quot;&gt;App D&lt;/font&gt;" style="rounded=1;whiteSpace=wrap;html=1;fillColor=#FFFFFF;strokeColor=#000000;strokeWidth=2;" parent="1" vertex="1">
                    <mxGeometry x="640" y="239" width="120" height="40" as="geometry"/>
                </mxCell>
                <mxCell id="bsSO3kbQTR8HCDqmFECx-42" value="&lt;font style=&quot;font-size: 14px;&quot; color=&quot;#000000&quot;&gt;Listen on&lt;br&gt;10.0.0.1:1234&lt;br&gt;&lt;/font&gt;" style="rounded=1;whiteSpace=wrap;html=1;fillColor=#FFFFFF;strokeColor=#000000;glass=0;strokeWidth=2;" parent="1" vertex="1">
                    <mxGeometry x="640" y="320" width="120" height="40" as="geometry"/>
                </mxCell>
                <mxCell id="bsSO3kbQTR8HCDqmFECx-45" value="" style="endArrow=none;html=1;strokeColor=#000000;strokeWidth=5;fontSize=13;fontColor=#000000;" parent="1" edge="1">
                    <mxGeometry width="50" height="50" relative="1" as="geometry">
                        <mxPoint x="80" y="660" as="sourcePoint"/>
                        <mxPoint x="760" y="660" as="targetPoint"/>
                    </mxGeometry>
                </mxCell>
                <mxCell id="bsSO3kbQTR8HCDqmFECx-46" value="&lt;font style=&quot;font-size: 16px;&quot;&gt;Lan&lt;/font&gt;" style="text;html=1;strokeColor=none;fillColor=none;align=center;verticalAlign=middle;whiteSpace=wrap;rounded=0;glass=0;sketch=0;strokeWidth=2;fontSize=13;fontColor=#000000;" parent="1" vertex="1">
                    <mxGeometry x="354" y="660" width="60" height="30" as="geometry"/>
                </mxCell>
                <mxCell id="bsSO3kbQTR8HCDqmFECx-47" value="" style="shape=flexArrow;endArrow=classic;startArrow=classic;html=1;strokeColor=#000000;strokeWidth=2;fontSize=16;fontColor=#000000;exitX=0.5;exitY=1;exitDx=0;exitDy=0;endSize=3;startSize=3;spacing=2;" parent="1" source="bsSO3kbQTR8HCDqmFECx-2" edge="1">
                    <mxGeometry width="100" height="100" relative="1" as="geometry">
                        <mxPoint x="360" y="390" as="sourcePoint"/>
                        <mxPoint x="140" y="660" as="targetPoint"/>
                    </mxGeometry>
                </mxCell>
                <mxCell id="bsSO3kbQTR8HCDqmFECx-48" value="" style="shape=flexArrow;endArrow=classic;startArrow=classic;html=1;strokeColor=#000000;strokeWidth=2;fontSize=16;fontColor=#000000;exitX=0.5;exitY=1;exitDx=0;exitDy=0;endSize=3;startSize=3;spacing=2;" parent="1" edge="1">
                    <mxGeometry width="100" height="100" relative="1" as="geometry">
                        <mxPoint x="539.5" y="601" as="sourcePoint"/>
                        <mxPoint x="539.5" y="658" as="targetPoint"/>
                    </mxGeometry>
                </mxCell>
                <mxCell id="bsSO3kbQTR8HCDqmFECx-55" style="edgeStyle=orthogonalEdgeStyle;html=1;exitX=0.5;exitY=0;exitDx=0;exitDy=0;entryX=0.5;entryY=1;entryDx=0;entryDy=0;strokeColor=#000000;strokeWidth=2;fontSize=16;fontColor=#000000;startArrow=none;startFill=0;endArrow=classic;endFill=1;startSize=3;endSize=3;" parent="1" source="bsSO3kbQTR8HCDqmFECx-52" target="bsSO3kbQTR8HCDqmFECx-54" edge="1">
                    <mxGeometry relative="1" as="geometry"/>
                </mxCell>
                <mxCell id="bsSO3kbQTR8HCDqmFECx-52" value="&lt;font style=&quot;font-size: 13px;&quot; color=&quot;#000000&quot;&gt;Unpackage &lt;br&gt;TCP/IP header&lt;br&gt;&lt;/font&gt;" style="rounded=1;whiteSpace=wrap;html=1;fillColor=#FFFFFF;strokeColor=#000000;strokeWidth=2;" parent="1" vertex="1">
                    <mxGeometry x="480" y="159" width="120" height="40" as="geometry"/>
                </mxCell>
                <mxCell id="bsSO3kbQTR8HCDqmFECx-56" style="edgeStyle=orthogonalEdgeStyle;html=1;exitX=0.5;exitY=0;exitDx=0;exitDy=0;entryX=0.5;entryY=0;entryDx=0;entryDy=0;strokeColor=#000000;strokeWidth=2;fontSize=16;fontColor=#000000;startArrow=none;startFill=0;endArrow=classic;endFill=1;startSize=3;endSize=3;" parent="1" source="bsSO3kbQTR8HCDqmFECx-54" target="bsSO3kbQTR8HCDqmFECx-34" edge="1">
                    <mxGeometry relative="1" as="geometry">
                        <Array as="points">
                            <mxPoint x="540" y="60"/>
                            <mxPoint x="620" y="60"/>
                        </Array>
                    </mxGeometry>
                </mxCell>
                <mxCell id="bsSO3kbQTR8HCDqmFECx-54" value="&lt;font style=&quot;font-size: 14px;&quot; color=&quot;#000000&quot;&gt;Send packet to&lt;br&gt;protocol stack&lt;br&gt;&lt;/font&gt;" style="rounded=1;whiteSpace=wrap;html=1;fillColor=#FFFFFF;strokeColor=#000000;glass=0;strokeWidth=2;" parent="1" vertex="1">
                    <mxGeometry x="480" y="79" width="120" height="40" as="geometry"/>
                </mxCell>
                <mxCell id="bsSO3kbQTR8HCDqmFECx-57" style="edgeStyle=orthogonalEdgeStyle;html=1;entryX=0.789;entryY=1;entryDx=0;entryDy=0;entryPerimeter=0;strokeColor=#FF0000;strokeWidth=2;fontSize=16;fontColor=#000000;startArrow=none;startFill=0;endArrow=classic;endFill=1;startSize=3;endSize=3;dashed=1;" parent="1" target="bsSO3kbQTR8HCDqmFECx-6" edge="1">
                    <mxGeometry relative="1" as="geometry">
                        <mxPoint x="140" y="420" as="sourcePoint"/>
                        <Array as="points">
                            <mxPoint x="140" y="460"/>
                            <mxPoint x="301" y="460"/>
                        </Array>
                    </mxGeometry>
                </mxCell>
                <mxCell id="bsSO3kbQTR8HCDqmFECx-58" style="edgeStyle=orthogonalEdgeStyle;html=1;entryX=0.214;entryY=0.983;entryDx=0;entryDy=0;entryPerimeter=0;strokeColor=#001DBC;strokeWidth=2;fontSize=16;fontColor=#000000;startArrow=none;startFill=0;endArrow=classic;endFill=1;startSize=3;endSize=3;dashed=1;fillColor=#0050ef;" parent="1" target="bsSO3kbQTR8HCDqmFECx-6" edge="1">
                    <mxGeometry relative="1" as="geometry">
                        <mxPoint x="300" y="420" as="sourcePoint"/>
                        <mxPoint x="310.9200000000001" y="491" as="targetPoint"/>
                        <Array as="points">
                            <mxPoint x="300" y="440"/>
                            <mxPoint x="140" y="440"/>
                        </Array>
                    </mxGeometry>
                </mxCell>
                <mxCell id="bsSO3kbQTR8HCDqmFECx-59" style="edgeStyle=none;html=1;exitX=0.5;exitY=1;exitDx=0;exitDy=0;entryX=0.214;entryY=-0.017;entryDx=0;entryDy=0;entryPerimeter=0;strokeColor=#000000;strokeWidth=2;fontSize=14;fontColor=#000000;endArrow=none;endFill=0;startArrow=classic;startFill=1;" parent="1" edge="1">
                    <mxGeometry relative="1" as="geometry">
                        <mxPoint x="702" y="360" as="sourcePoint"/>
                        <mxPoint x="701.9200000000001" y="418.98" as="targetPoint"/>
                    </mxGeometry>
                </mxCell>
                <mxCell id="bsSO3kbQTR8HCDqmFECx-60" value="&lt;font color=&quot;#000000&quot;&gt;&lt;span style=&quot;font-size: 14px;&quot;&gt;app-tun&lt;/span&gt;&lt;/font&gt;" style="rounded=1;whiteSpace=wrap;html=1;fillColor=#FFFFFF;strokeColor=#000000;strokeWidth=2;" parent="1" vertex="1">
                    <mxGeometry x="640" y="79" width="120" height="40" as="geometry"/>
                </mxCell>
                <mxCell id="bsSO3kbQTR8HCDqmFECx-62" value="&lt;font style=&quot;font-size: 18px;&quot;&gt;Computer A&lt;/font&gt;" style="text;html=1;strokeColor=none;fillColor=none;align=center;verticalAlign=middle;whiteSpace=wrap;rounded=0;glass=0;sketch=0;strokeWidth=2;fontSize=16;fontColor=#000000;" parent="1" vertex="1">
                    <mxGeometry x="70" y="23" width="120" height="30" as="geometry"/>
                </mxCell>
                <mxCell id="bsSO3kbQTR8HCDqmFECx-63" value="&lt;font style=&quot;font-size: 18px;&quot;&gt;Computer B&lt;/font&gt;" style="text;html=1;strokeColor=none;fillColor=none;align=center;verticalAlign=middle;whiteSpace=wrap;rounded=0;glass=0;sketch=0;strokeWidth=2;fontSize=16;fontColor=#000000;" parent="1" vertex="1">
                    <mxGeometry x="440" y="23" width="120" height="30" as="geometry"/>
                </mxCell>
                <mxCell id="bsSO3kbQTR8HCDqmFECx-65" value="" style="curved=1;endArrow=classic;html=1;strokeColor=#FF0000;strokeWidth=2;fontSize=18;fontColor=#000000;startSize=3;endSize=3;entryX=0.786;entryY=0;entryDx=0;entryDy=0;entryPerimeter=0;exitX=0.5;exitY=0;exitDx=0;exitDy=0;dashed=1;fillColor=#e51400;" parent="1" source="bsSO3kbQTR8HCDqmFECx-34" target="bsSO3kbQTR8HCDqmFECx-34" edge="1">
                    <mxGeometry width="50" height="50" relative="1" as="geometry">
                        <mxPoint x="640" y="490" as="sourcePoint"/>
                        <mxPoint x="690" y="440" as="targetPoint"/>
                        <Array as="points">
                            <mxPoint x="630" y="440"/>
                            <mxPoint x="660" y="440"/>
                        </Array>
                    </mxGeometry>
                </mxCell>
            </root>
        </mxGraphModel>
    </diagram>
    <diagram id="lBMaH31nj32pBS0gJe0l" name="第 4 页">
        <mxGraphModel dx="993" dy="731" grid="1" gridSize="10" guides="1" tooltips="1" connect="1" arrows="1" fold="1" page="1" pageScale="1" pageWidth="827" pageHeight="1169" math="0" shadow="0">
            <root>
                <mxCell id="0"/>
                <mxCell id="1" parent="0"/>
                <mxCell id="549uaHIAO2YP7xCpIByj-1" value="" style="rounded=0;whiteSpace=wrap;html=1;strokeColor=none;strokeWidth=2;fontSize=18;fontColor=#000000;fillColor=#FFFFFF;" parent="1" vertex="1">
                    <mxGeometry x="40" y="20" width="560" height="580" as="geometry"/>
                </mxCell>
                <mxCell id="549uaHIAO2YP7xCpIByj-2" style="edgeStyle=none;html=1;exitX=0.5;exitY=1;exitDx=0;exitDy=0;entryX=0.5;entryY=0;entryDx=0;entryDy=0;fontSize=14;fontColor=#000000;strokeColor=#001DBC;strokeWidth=2;endSize=2;fillColor=#0050ef;" parent="1" source="549uaHIAO2YP7xCpIByj-3" target="549uaHIAO2YP7xCpIByj-5" edge="1">
                    <mxGeometry relative="1" as="geometry"/>
                </mxCell>
                <mxCell id="549uaHIAO2YP7xCpIByj-3" value="&lt;font style=&quot;font-size: 14px;&quot; color=&quot;#000000&quot;&gt;application A&lt;/font&gt;" style="rounded=0;whiteSpace=wrap;html=1;strokeColor=#000000;fillColor=#FFFFFF;strokeWidth=2;" parent="1" vertex="1">
                    <mxGeometry x="80" y="80" width="120" height="40" as="geometry"/>
                </mxCell>
                <mxCell id="549uaHIAO2YP7xCpIByj-4" style="edgeStyle=none;html=1;exitX=0.5;exitY=1;exitDx=0;exitDy=0;strokeColor=#001DBC;strokeWidth=2;fontSize=14;fontColor=#000000;endSize=2;entryX=0.188;entryY=-0.017;entryDx=0;entryDy=0;entryPerimeter=0;fillColor=#0050ef;" parent="1" source="549uaHIAO2YP7xCpIByj-5" target="549uaHIAO2YP7xCpIByj-6" edge="1">
                    <mxGeometry relative="1" as="geometry"/>
                </mxCell>
                <mxCell id="549uaHIAO2YP7xCpIByj-5" value="&lt;font style=&quot;font-size: 14px;&quot; color=&quot;#000000&quot;&gt;Socket A&lt;/font&gt;" style="rounded=0;whiteSpace=wrap;html=1;strokeColor=#000000;fillColor=#FFFFFF;strokeWidth=2;" parent="1" vertex="1">
                    <mxGeometry x="80" y="160" width="120" height="40" as="geometry"/>
                </mxCell>
                <mxCell id="549uaHIAO2YP7xCpIByj-6" value="&lt;font style=&quot;font-size: 14px;&quot; color=&quot;#000000&quot;&gt;Network Protocol Stack(Linux Kernel)&lt;/font&gt;" style="rounded=0;whiteSpace=wrap;html=1;strokeColor=#000000;fillColor=#FFFFFF;strokeWidth=2;" parent="1" vertex="1">
                    <mxGeometry x="80" y="260" width="320" height="60" as="geometry"/>
                </mxCell>
                <mxCell id="549uaHIAO2YP7xCpIByj-7" style="edgeStyle=none;html=1;exitX=0.5;exitY=1;exitDx=0;exitDy=0;entryX=0.5;entryY=0;entryDx=0;entryDy=0;strokeColor=#000000;strokeWidth=2;fontSize=14;fontColor=#000000;endSize=2;" parent="1" source="549uaHIAO2YP7xCpIByj-8" target="549uaHIAO2YP7xCpIByj-10" edge="1">
                    <mxGeometry relative="1" as="geometry"/>
                </mxCell>
                <mxCell id="549uaHIAO2YP7xCpIByj-8" value="&lt;font style=&quot;font-size: 14px;&quot; color=&quot;#000000&quot;&gt;application-tun&lt;/font&gt;" style="rounded=0;whiteSpace=wrap;html=1;strokeColor=#000000;fillColor=#FFFFFF;strokeWidth=2;" parent="1" vertex="1">
                    <mxGeometry x="280" y="80" width="120" height="40" as="geometry"/>
                </mxCell>
                <mxCell id="549uaHIAO2YP7xCpIByj-9" style="edgeStyle=none;html=1;exitX=0.5;exitY=1;exitDx=0;exitDy=0;strokeColor=#000000;strokeWidth=2;fontSize=14;fontColor=#000000;endSize=2;" parent="1" source="549uaHIAO2YP7xCpIByj-10" edge="1">
                    <mxGeometry relative="1" as="geometry">
                        <mxPoint x="340" y="260" as="targetPoint"/>
                    </mxGeometry>
                </mxCell>
                <mxCell id="549uaHIAO2YP7xCpIByj-10" value="&lt;font style=&quot;font-size: 14px;&quot; color=&quot;#000000&quot;&gt;Socket A&lt;/font&gt;" style="rounded=0;whiteSpace=wrap;html=1;strokeColor=#000000;fillColor=#FFFFFF;strokeWidth=2;" parent="1" vertex="1">
                    <mxGeometry x="280" y="160" width="120" height="40" as="geometry"/>
                </mxCell>
                <mxCell id="549uaHIAO2YP7xCpIByj-11" style="edgeStyle=orthogonalEdgeStyle;html=1;exitX=0.5;exitY=1;exitDx=0;exitDy=0;entryX=0.5;entryY=0;entryDx=0;entryDy=0;strokeColor=#001DBC;fontSize=14;strokeWidth=2;fillColor=#0050ef;" parent="1" source="549uaHIAO2YP7xCpIByj-13" target="549uaHIAO2YP7xCpIByj-8" edge="1">
                    <mxGeometry relative="1" as="geometry">
                        <Array as="points">
                            <mxPoint x="340" y="440"/>
                            <mxPoint x="540" y="440"/>
                            <mxPoint x="540" y="60"/>
                            <mxPoint x="340" y="60"/>
                        </Array>
                    </mxGeometry>
                </mxCell>
                <mxCell id="549uaHIAO2YP7xCpIByj-13" value="&lt;font style=&quot;font-size: 14px;&quot; color=&quot;#000000&quot;&gt;tun0 driver&lt;br&gt;(10.0.0.1)&lt;br&gt;&lt;/font&gt;" style="rounded=0;whiteSpace=wrap;html=1;strokeColor=#000000;fillColor=#FFFFFF;strokeWidth=2;" parent="1" vertex="1">
                    <mxGeometry x="280" y="380" width="120" height="40" as="geometry"/>
                </mxCell>
                <mxCell id="549uaHIAO2YP7xCpIByj-14" style="edgeStyle=orthogonalEdgeStyle;html=1;exitX=0.5;exitY=0;exitDx=0;exitDy=0;entryX=1;entryY=0.5;entryDx=0;entryDy=0;strokeColor=#000000;startArrow=classic;startFill=1;endArrow=none;endFill=0;" parent="1" source="549uaHIAO2YP7xCpIByj-15" target="549uaHIAO2YP7xCpIByj-8" edge="1">
                    <mxGeometry relative="1" as="geometry"/>
                </mxCell>
                <mxCell id="549uaHIAO2YP7xCpIByj-15" value="&lt;font style=&quot;font-size: 14px;&quot; color=&quot;#000000&quot;&gt;/dev/net/tun&lt;/font&gt;" style="rounded=0;whiteSpace=wrap;html=1;strokeColor=#000000;fillColor=#FFFFFF;strokeWidth=2;" parent="1" vertex="1">
                    <mxGeometry x="420" y="160" width="100" height="40" as="geometry"/>
                </mxCell>
                <mxCell id="549uaHIAO2YP7xCpIByj-16" style="edgeStyle=orthogonalEdgeStyle;html=1;exitX=0.5;exitY=1;exitDx=0;exitDy=0;strokeColor=#000000;strokeWidth=2;fontSize=14;fontColor=#000000;endSize=2;" parent="1" source="549uaHIAO2YP7xCpIByj-17" edge="1">
                    <mxGeometry relative="1" as="geometry">
                        <mxPoint x="140" y="520" as="targetPoint"/>
                    </mxGeometry>
                </mxCell>
                <mxCell id="549uaHIAO2YP7xCpIByj-17" value="&lt;font style=&quot;font-size: 14px;&quot; color=&quot;#000000&quot;&gt;enp0s3 driver&lt;br&gt;(192.168.2.114)&lt;br&gt;&lt;/font&gt;" style="rounded=0;whiteSpace=wrap;html=1;strokeColor=#000000;fillColor=#FFFFFF;strokeWidth=2;" parent="1" vertex="1">
                    <mxGeometry x="80" y="380" width="120" height="40" as="geometry"/>
                </mxCell>
                <mxCell id="549uaHIAO2YP7xCpIByj-18" value="" style="endArrow=none;dashed=1;html=1;strokeWidth=2;strokeColor=#000000;fontSize=14;fontColor=#000000;endSize=2;" parent="1" edge="1">
                    <mxGeometry width="50" height="50" relative="1" as="geometry">
                        <mxPoint x="60" y="481" as="sourcePoint"/>
                        <mxPoint x="580" y="481" as="targetPoint"/>
                    </mxGeometry>
                </mxCell>
                <mxCell id="549uaHIAO2YP7xCpIByj-19" value="&lt;span style=&quot;font-size: 18px;&quot;&gt;Physical Network&lt;/span&gt;" style="text;html=1;strokeColor=none;fillColor=none;align=center;verticalAlign=middle;whiteSpace=wrap;rounded=0;strokeWidth=2;fontSize=14;fontColor=#000000;" parent="1" vertex="1">
                    <mxGeometry x="48" y="545" width="190" height="30" as="geometry"/>
                </mxCell>
                <mxCell id="549uaHIAO2YP7xCpIByj-20" value="&lt;font color=&quot;#000000&quot; style=&quot;font-size: 12px;&quot;&gt;send data to&lt;br&gt;10.0.0.2:5678&lt;br&gt;&lt;/font&gt;" style="text;html=1;strokeColor=none;fillColor=none;align=left;verticalAlign=middle;whiteSpace=wrap;rounded=0;fontSize=13;" parent="1" vertex="1">
                    <mxGeometry x="148" y="204" width="100" height="46" as="geometry"/>
                </mxCell>
                <mxCell id="549uaHIAO2YP7xCpIByj-21" value="&lt;font color=&quot;#000000&quot; style=&quot;font-size: 14px;&quot;&gt;open&lt;/font&gt;" style="text;html=1;strokeColor=none;fillColor=none;align=right;verticalAlign=middle;whiteSpace=wrap;rounded=0;fontSize=13;" parent="1" vertex="1">
                    <mxGeometry x="420" y="119" width="50" height="40" as="geometry"/>
                </mxCell>
                <mxCell id="549uaHIAO2YP7xCpIByj-22" style="edgeStyle=orthogonalEdgeStyle;html=1;exitX=0.5;exitY=1;exitDx=0;exitDy=0;strokeColor=#000000;strokeWidth=2;fontSize=14;fontColor=#000000;endSize=2;" parent="1" edge="1">
                    <mxGeometry relative="1" as="geometry">
                        <mxPoint x="142" y="380" as="targetPoint"/>
                        <mxPoint x="142" y="320" as="sourcePoint"/>
                    </mxGeometry>
                </mxCell>
                <mxCell id="549uaHIAO2YP7xCpIByj-23" style="edgeStyle=orthogonalEdgeStyle;html=1;exitX=0.5;exitY=1;exitDx=0;exitDy=0;strokeColor=#001DBC;strokeWidth=2;fontSize=14;fontColor=#000000;endSize=2;fillColor=#0050ef;" parent="1" edge="1">
                    <mxGeometry relative="1" as="geometry">
                        <mxPoint x="340" y="380" as="targetPoint"/>
                        <mxPoint x="340" y="320" as="sourcePoint"/>
                    </mxGeometry>
                </mxCell>
                <mxCell id="549uaHIAO2YP7xCpIByj-24" style="edgeStyle=orthogonalEdgeStyle;html=1;strokeColor=#FF0000;fontSize=14;strokeWidth=2;exitX=0.188;exitY=0;exitDx=0;exitDy=0;exitPerimeter=0;entryX=0.813;entryY=0.983;entryDx=0;entryDy=0;entryPerimeter=0;dashed=1;" parent="1" source="549uaHIAO2YP7xCpIByj-6" target="549uaHIAO2YP7xCpIByj-6" edge="1">
                    <mxGeometry relative="1" as="geometry">
                        <mxPoint x="580" y="560" as="sourcePoint"/>
                        <mxPoint x="460" y="260" as="targetPoint"/>
                        <Array as="points">
                            <mxPoint x="140" y="280"/>
                            <mxPoint x="340" y="280"/>
                        </Array>
                    </mxGeometry>
                </mxCell>
                <mxCell id="549uaHIAO2YP7xCpIByj-25" value="" style="endArrow=none;dashed=1;html=1;strokeWidth=1;strokeColor=#000000;fontSize=12;" parent="1" edge="1">
                    <mxGeometry width="50" height="50" relative="1" as="geometry">
                        <mxPoint x="240" y="440" as="sourcePoint"/>
                        <mxPoint x="240" y="40" as="targetPoint"/>
                    </mxGeometry>
                </mxCell>
            </root>
        </mxGraphModel>
    </diagram>
    <diagram id="Ge-TGvGSaxkgLmJ7WrCG" name="第 3 页">
        <mxGraphModel dx="993" dy="731" grid="1" gridSize="10" guides="1" tooltips="1" connect="1" arrows="1" fold="1" page="1" pageScale="1" pageWidth="827" pageHeight="1169" background="#ffffff" math="0" shadow="0">
            <root>
                <mxCell id="0"/>
                <mxCell id="1" parent="0"/>
                <mxCell id="GLVXH1b4re-_IUkdJNYs-1" value="" style="rounded=0;whiteSpace=wrap;html=1;strokeColor=none;strokeWidth=2;fontSize=18;fontColor=#000000;fillColor=#FFFFFF;" vertex="1" parent="1">
                    <mxGeometry x="40" y="20" width="660" height="580" as="geometry"/>
                </mxCell>
                <mxCell id="GLVXH1b4re-_IUkdJNYs-2" style="edgeStyle=none;html=1;exitX=0.5;exitY=1;exitDx=0;exitDy=0;entryX=0.5;entryY=0;entryDx=0;entryDy=0;fontSize=14;fontColor=#000000;strokeColor=#001DBC;strokeWidth=2;endSize=2;fillColor=#0050ef;" edge="1" parent="1" source="GLVXH1b4re-_IUkdJNYs-3" target="GLVXH1b4re-_IUkdJNYs-5">
                    <mxGeometry relative="1" as="geometry"/>
                </mxCell>
                <mxCell id="GLVXH1b4re-_IUkdJNYs-3" value="&lt;font style=&quot;font-size: 14px;&quot; color=&quot;#000000&quot;&gt;application A&lt;/font&gt;" style="rounded=0;whiteSpace=wrap;html=1;strokeColor=#000000;fillColor=#FFFFFF;strokeWidth=2;" vertex="1" parent="1">
                    <mxGeometry x="80" y="80" width="120" height="40" as="geometry"/>
                </mxCell>
                <mxCell id="GLVXH1b4re-_IUkdJNYs-4" style="edgeStyle=none;html=1;exitX=0.5;exitY=1;exitDx=0;exitDy=0;strokeColor=#001DBC;strokeWidth=2;fontSize=14;fontColor=#000000;endSize=2;entryX=0.188;entryY=-0.017;entryDx=0;entryDy=0;entryPerimeter=0;fillColor=#0050ef;" edge="1" parent="1" source="GLVXH1b4re-_IUkdJNYs-5" target="GLVXH1b4re-_IUkdJNYs-6">
                    <mxGeometry relative="1" as="geometry"/>
                </mxCell>
                <mxCell id="GLVXH1b4re-_IUkdJNYs-5" value="&lt;font style=&quot;font-size: 14px;&quot; color=&quot;#000000&quot;&gt;Socket A&lt;/font&gt;" style="rounded=0;whiteSpace=wrap;html=1;strokeColor=#000000;fillColor=#FFFFFF;strokeWidth=2;" vertex="1" parent="1">
                    <mxGeometry x="80" y="160" width="120" height="40" as="geometry"/>
                </mxCell>
                <mxCell id="GLVXH1b4re-_IUkdJNYs-6" value="&lt;font style=&quot;font-size: 14px;&quot; color=&quot;#000000&quot;&gt;Network Protocol Stack(Linux Kernel)&lt;/font&gt;" style="rounded=0;whiteSpace=wrap;html=1;strokeColor=#000000;fillColor=#FFFFFF;strokeWidth=2;" vertex="1" parent="1">
                    <mxGeometry x="80" y="260" width="320" height="60" as="geometry"/>
                </mxCell>
                <mxCell id="GLVXH1b4re-_IUkdJNYs-7" style="edgeStyle=none;html=1;exitX=0.5;exitY=1;exitDx=0;exitDy=0;entryX=0.5;entryY=0;entryDx=0;entryDy=0;strokeColor=#000000;strokeWidth=2;fontSize=14;fontColor=#000000;endSize=2;" edge="1" parent="1" source="GLVXH1b4re-_IUkdJNYs-8" target="GLVXH1b4re-_IUkdJNYs-10">
                    <mxGeometry relative="1" as="geometry"/>
                </mxCell>
                <mxCell id="GLVXH1b4re-_IUkdJNYs-8" value="&lt;font style=&quot;font-size: 14px;&quot; color=&quot;#000000&quot;&gt;application-tun&lt;/font&gt;" style="rounded=0;whiteSpace=wrap;html=1;strokeColor=#000000;fillColor=#FFFFFF;strokeWidth=2;" vertex="1" parent="1">
                    <mxGeometry x="280" y="80" width="120" height="40" as="geometry"/>
                </mxCell>
                <mxCell id="GLVXH1b4re-_IUkdJNYs-9" style="edgeStyle=none;html=1;exitX=0.5;exitY=1;exitDx=0;exitDy=0;strokeColor=#000000;strokeWidth=2;fontSize=14;fontColor=#000000;endSize=2;" edge="1" parent="1" source="GLVXH1b4re-_IUkdJNYs-10">
                    <mxGeometry relative="1" as="geometry">
                        <mxPoint x="340" y="260" as="targetPoint"/>
                    </mxGeometry>
                </mxCell>
                <mxCell id="GLVXH1b4re-_IUkdJNYs-10" value="&lt;font style=&quot;font-size: 14px;&quot; color=&quot;#000000&quot;&gt;Socket A&lt;/font&gt;" style="rounded=0;whiteSpace=wrap;html=1;strokeColor=#000000;fillColor=#FFFFFF;strokeWidth=2;" vertex="1" parent="1">
                    <mxGeometry x="280" y="160" width="120" height="40" as="geometry"/>
                </mxCell>
                <mxCell id="GLVXH1b4re-_IUkdJNYs-11" style="edgeStyle=orthogonalEdgeStyle;html=1;exitX=0.5;exitY=1;exitDx=0;exitDy=0;entryX=0.5;entryY=0;entryDx=0;entryDy=0;strokeColor=#000000;fontSize=14;strokeWidth=2;" edge="1" parent="1" source="GLVXH1b4re-_IUkdJNYs-12" target="GLVXH1b4re-_IUkdJNYs-8">
                    <mxGeometry relative="1" as="geometry">
                        <Array as="points">
                            <mxPoint x="340" y="440"/>
                            <mxPoint x="540" y="440"/>
                            <mxPoint x="540" y="60"/>
                            <mxPoint x="340" y="60"/>
                        </Array>
                    </mxGeometry>
                </mxCell>
                <mxCell id="GLVXH1b4re-_IUkdJNYs-26" style="edgeStyle=orthogonalEdgeStyle;html=1;exitX=0.5;exitY=1;exitDx=0;exitDy=0;entryX=0.5;entryY=1;entryDx=0;entryDy=0;strokeColor=#001DBC;strokeWidth=2;fontSize=12;fillColor=#0050ef;" edge="1" parent="1" source="GLVXH1b4re-_IUkdJNYs-12" target="GLVXH1b4re-_IUkdJNYs-25">
                    <mxGeometry relative="1" as="geometry">
                        <Array as="points">
                            <mxPoint x="340" y="460"/>
                            <mxPoint x="620" y="460"/>
                        </Array>
                    </mxGeometry>
                </mxCell>
                <mxCell id="GLVXH1b4re-_IUkdJNYs-12" value="&lt;font style=&quot;font-size: 14px;&quot; color=&quot;#000000&quot;&gt;tun0 driver&lt;br&gt;(10.0.0.1)&lt;br&gt;&lt;/font&gt;" style="rounded=0;whiteSpace=wrap;html=1;strokeColor=#000000;fillColor=#FFFFFF;strokeWidth=2;" vertex="1" parent="1">
                    <mxGeometry x="280" y="380" width="120" height="40" as="geometry"/>
                </mxCell>
                <mxCell id="GLVXH1b4re-_IUkdJNYs-13" style="edgeStyle=orthogonalEdgeStyle;html=1;exitX=0.5;exitY=0;exitDx=0;exitDy=0;entryX=1;entryY=0.5;entryDx=0;entryDy=0;strokeColor=#000000;startArrow=classic;startFill=1;endArrow=none;endFill=0;" edge="1" parent="1" source="GLVXH1b4re-_IUkdJNYs-14" target="GLVXH1b4re-_IUkdJNYs-8">
                    <mxGeometry relative="1" as="geometry"/>
                </mxCell>
                <mxCell id="GLVXH1b4re-_IUkdJNYs-14" value="&lt;font style=&quot;font-size: 14px;&quot; color=&quot;#000000&quot;&gt;/dev/net/tun&lt;/font&gt;" style="rounded=0;whiteSpace=wrap;html=1;strokeColor=#000000;fillColor=#FFFFFF;strokeWidth=2;" vertex="1" parent="1">
                    <mxGeometry x="420" y="160" width="100" height="40" as="geometry"/>
                </mxCell>
                <mxCell id="GLVXH1b4re-_IUkdJNYs-15" style="edgeStyle=orthogonalEdgeStyle;html=1;exitX=0.5;exitY=1;exitDx=0;exitDy=0;strokeColor=#000000;strokeWidth=2;fontSize=14;fontColor=#000000;endSize=2;" edge="1" parent="1" source="GLVXH1b4re-_IUkdJNYs-16">
                    <mxGeometry relative="1" as="geometry">
                        <mxPoint x="140" y="520" as="targetPoint"/>
                    </mxGeometry>
                </mxCell>
                <mxCell id="GLVXH1b4re-_IUkdJNYs-16" value="&lt;font style=&quot;font-size: 14px;&quot; color=&quot;#000000&quot;&gt;enp0s3 driver&lt;br&gt;(192.168.2.114)&lt;br&gt;&lt;/font&gt;" style="rounded=0;whiteSpace=wrap;html=1;strokeColor=#000000;fillColor=#FFFFFF;strokeWidth=2;" vertex="1" parent="1">
                    <mxGeometry x="80" y="380" width="120" height="40" as="geometry"/>
                </mxCell>
                <mxCell id="GLVXH1b4re-_IUkdJNYs-17" value="" style="endArrow=none;dashed=1;html=1;strokeWidth=2;strokeColor=#000000;fontSize=14;fontColor=#000000;endSize=2;" edge="1" parent="1">
                    <mxGeometry width="50" height="50" relative="1" as="geometry">
                        <mxPoint x="60" y="481" as="sourcePoint"/>
                        <mxPoint x="580" y="481" as="targetPoint"/>
                    </mxGeometry>
                </mxCell>
                <mxCell id="GLVXH1b4re-_IUkdJNYs-18" value="&lt;span style=&quot;font-size: 18px;&quot;&gt;Physical Network&lt;/span&gt;" style="text;html=1;strokeColor=none;fillColor=none;align=center;verticalAlign=middle;whiteSpace=wrap;rounded=0;strokeWidth=2;fontSize=14;fontColor=#000000;" vertex="1" parent="1">
                    <mxGeometry x="48" y="545" width="190" height="30" as="geometry"/>
                </mxCell>
                <mxCell id="GLVXH1b4re-_IUkdJNYs-19" value="&lt;font color=&quot;#000000&quot; style=&quot;font-size: 12px;&quot;&gt;send data to&lt;br&gt;10.0.0.1:5678&lt;br&gt;&lt;/font&gt;" style="text;html=1;strokeColor=none;fillColor=none;align=left;verticalAlign=middle;whiteSpace=wrap;rounded=0;fontSize=13;" vertex="1" parent="1">
                    <mxGeometry x="148" y="204" width="100" height="46" as="geometry"/>
                </mxCell>
                <mxCell id="GLVXH1b4re-_IUkdJNYs-20" value="&lt;font color=&quot;#000000&quot; style=&quot;font-size: 14px;&quot;&gt;open&lt;/font&gt;" style="text;html=1;strokeColor=none;fillColor=none;align=right;verticalAlign=middle;whiteSpace=wrap;rounded=0;fontSize=13;" vertex="1" parent="1">
                    <mxGeometry x="420" y="119" width="50" height="40" as="geometry"/>
                </mxCell>
                <mxCell id="GLVXH1b4re-_IUkdJNYs-21" style="edgeStyle=orthogonalEdgeStyle;html=1;exitX=0.5;exitY=1;exitDx=0;exitDy=0;strokeColor=#000000;strokeWidth=2;fontSize=14;fontColor=#000000;endSize=2;" edge="1" parent="1">
                    <mxGeometry relative="1" as="geometry">
                        <mxPoint x="142" y="380" as="targetPoint"/>
                        <mxPoint x="142" y="320" as="sourcePoint"/>
                    </mxGeometry>
                </mxCell>
                <mxCell id="GLVXH1b4re-_IUkdJNYs-22" style="edgeStyle=orthogonalEdgeStyle;html=1;exitX=0.5;exitY=1;exitDx=0;exitDy=0;strokeColor=#001DBC;strokeWidth=2;fontSize=14;fontColor=#000000;endSize=2;fillColor=#0050ef;" edge="1" parent="1">
                    <mxGeometry relative="1" as="geometry">
                        <mxPoint x="340" y="380" as="targetPoint"/>
                        <mxPoint x="340" y="320" as="sourcePoint"/>
                    </mxGeometry>
                </mxCell>
                <mxCell id="GLVXH1b4re-_IUkdJNYs-23" style="edgeStyle=orthogonalEdgeStyle;html=1;strokeColor=#FF0000;fontSize=14;strokeWidth=2;exitX=0.188;exitY=0;exitDx=0;exitDy=0;exitPerimeter=0;entryX=0.813;entryY=0.983;entryDx=0;entryDy=0;entryPerimeter=0;dashed=1;" edge="1" parent="1" source="GLVXH1b4re-_IUkdJNYs-6" target="GLVXH1b4re-_IUkdJNYs-6">
                    <mxGeometry relative="1" as="geometry">
                        <mxPoint x="580" y="560" as="sourcePoint"/>
                        <mxPoint x="460" y="260" as="targetPoint"/>
                        <Array as="points">
                            <mxPoint x="140" y="280"/>
                            <mxPoint x="340" y="280"/>
                        </Array>
                    </mxGeometry>
                </mxCell>
                <mxCell id="GLVXH1b4re-_IUkdJNYs-27" value="" style="endArrow=none;dashed=1;html=1;strokeWidth=1;strokeColor=#000000;fontSize=12;" edge="1" parent="1">
                    <mxGeometry width="50" height="50" relative="1" as="geometry">
                        <mxPoint x="240" y="440" as="sourcePoint"/>
                        <mxPoint x="240" y="40" as="targetPoint"/>
                    </mxGeometry>
                </mxCell>
                <mxCell id="GLVXH1b4re-_IUkdJNYs-25" value="&lt;font style=&quot;font-size: 14px;&quot; color=&quot;#000000&quot;&gt;application B&lt;br&gt;(listen on 5678)&lt;br&gt;&lt;/font&gt;" style="rounded=0;whiteSpace=wrap;html=1;strokeColor=#000000;fillColor=#FFFFFF;strokeWidth=2;" vertex="1" parent="1">
                    <mxGeometry x="560" y="80" width="120" height="40" as="geometry"/>
                </mxCell>
            </root>
        </mxGraphModel>
    </diagram>
    <diagram id="F7_7197ImRXhEtP014LH" name="第 2 页">
        <mxGraphModel dx="993" dy="731" grid="1" gridSize="10" guides="1" tooltips="1" connect="1" arrows="1" fold="1" page="1" pageScale="1" pageWidth="827" pageHeight="1169" background="#ffffff" math="0" shadow="0">
            <root>
                <mxCell id="0"/>
                <mxCell id="1" parent="0"/>
                <mxCell id="P8OrgJ7ncMr9i-wIuGdN-1" value="" style="rounded=0;whiteSpace=wrap;html=1;strokeColor=none;strokeWidth=2;fontSize=18;fontColor=#000000;fillColor=#FFFFFF;" vertex="1" parent="1">
                    <mxGeometry x="100" y="60" width="500" height="460" as="geometry"/>
                </mxCell>
                <mxCell id="P8OrgJ7ncMr9i-wIuGdN-2" style="edgeStyle=none;html=1;exitX=0.5;exitY=1;exitDx=0;exitDy=0;entryX=0.5;entryY=0;entryDx=0;entryDy=0;fontSize=14;fontColor=#000000;strokeColor=#001DBC;strokeWidth=2;endSize=2;fillColor=#0050ef;" edge="1" parent="1" source="P8OrgJ7ncMr9i-wIuGdN-3" target="P8OrgJ7ncMr9i-wIuGdN-5">
                    <mxGeometry relative="1" as="geometry"/>
                </mxCell>
                <mxCell id="P8OrgJ7ncMr9i-wIuGdN-3" value="&lt;font style=&quot;font-size: 14px;&quot; color=&quot;#000000&quot;&gt;application A&lt;/font&gt;" style="rounded=0;whiteSpace=wrap;html=1;strokeColor=#000000;fillColor=#FFFFFF;strokeWidth=2;" vertex="1" parent="1">
                    <mxGeometry x="360" y="81" width="120" height="40" as="geometry"/>
                </mxCell>
                <mxCell id="P8OrgJ7ncMr9i-wIuGdN-4" style="edgeStyle=none;html=1;exitX=0.5;exitY=1;exitDx=0;exitDy=0;strokeColor=#001DBC;strokeWidth=2;fontSize=14;fontColor=#000000;endSize=2;entryX=0.5;entryY=0;entryDx=0;entryDy=0;fillColor=#0050ef;" edge="1" parent="1" source="P8OrgJ7ncMr9i-wIuGdN-5" target="P8OrgJ7ncMr9i-wIuGdN-6">
                    <mxGeometry relative="1" as="geometry"/>
                </mxCell>
                <mxCell id="P8OrgJ7ncMr9i-wIuGdN-5" value="&lt;font style=&quot;font-size: 14px;&quot; color=&quot;#000000&quot;&gt;Socket A&lt;/font&gt;" style="rounded=0;whiteSpace=wrap;html=1;strokeColor=#000000;fillColor=#FFFFFF;strokeWidth=2;" vertex="1" parent="1">
                    <mxGeometry x="360" y="161" width="120" height="40" as="geometry"/>
                </mxCell>
                <mxCell id="P8OrgJ7ncMr9i-wIuGdN-6" value="&lt;font style=&quot;font-size: 14px;&quot; color=&quot;#000000&quot;&gt;Network Protocol Stack(Linux Kernel)&lt;/font&gt;" style="rounded=0;whiteSpace=wrap;html=1;strokeColor=#000000;fillColor=#FFFFFF;strokeWidth=2;" vertex="1" parent="1">
                    <mxGeometry x="285" y="261" width="270" height="60" as="geometry"/>
                </mxCell>
                <mxCell id="P8OrgJ7ncMr9i-wIuGdN-15" style="edgeStyle=orthogonalEdgeStyle;html=1;exitX=0.5;exitY=1;exitDx=0;exitDy=0;strokeColor=#000000;strokeWidth=2;fontSize=14;fontColor=#000000;endSize=2;" edge="1" parent="1" source="P8OrgJ7ncMr9i-wIuGdN-16">
                    <mxGeometry relative="1" as="geometry">
                        <mxPoint x="420" y="481" as="targetPoint"/>
                    </mxGeometry>
                </mxCell>
                <mxCell id="P8OrgJ7ncMr9i-wIuGdN-26" style="edgeStyle=orthogonalEdgeStyle;html=1;exitX=0.5;exitY=1;exitDx=0;exitDy=0;entryX=0.5;entryY=1;entryDx=0;entryDy=0;fontSize=12;strokeColor=#001DBC;strokeWidth=2;fillColor=#0050ef;" edge="1" parent="1" source="P8OrgJ7ncMr9i-wIuGdN-16" target="P8OrgJ7ncMr9i-wIuGdN-25">
                    <mxGeometry relative="1" as="geometry">
                        <Array as="points">
                            <mxPoint x="420" y="440"/>
                            <mxPoint x="210" y="440"/>
                        </Array>
                    </mxGeometry>
                </mxCell>
                <mxCell id="P8OrgJ7ncMr9i-wIuGdN-16" value="&lt;font style=&quot;font-size: 14px;&quot; color=&quot;#000000&quot;&gt;enp0s3 driver&lt;br&gt;(192.168.2.114)&lt;br&gt;&lt;/font&gt;" style="rounded=0;whiteSpace=wrap;html=1;strokeColor=#000000;fillColor=#FFFFFF;strokeWidth=2;" vertex="1" parent="1">
                    <mxGeometry x="360" y="381" width="120" height="40" as="geometry"/>
                </mxCell>
                <mxCell id="P8OrgJ7ncMr9i-wIuGdN-17" value="" style="endArrow=none;dashed=1;html=1;strokeWidth=2;strokeColor=#000000;fontSize=14;fontColor=#000000;endSize=2;" edge="1" parent="1">
                    <mxGeometry width="50" height="50" relative="1" as="geometry">
                        <mxPoint x="120" y="461" as="sourcePoint"/>
                        <mxPoint x="585" y="461" as="targetPoint"/>
                    </mxGeometry>
                </mxCell>
                <mxCell id="P8OrgJ7ncMr9i-wIuGdN-18" value="&lt;span style=&quot;font-size: 18px;&quot;&gt;Physical Network&lt;/span&gt;" style="text;html=1;strokeColor=none;fillColor=none;align=center;verticalAlign=middle;whiteSpace=wrap;rounded=0;strokeWidth=2;fontSize=14;fontColor=#000000;" vertex="1" parent="1">
                    <mxGeometry x="335" y="480" width="190" height="30" as="geometry"/>
                </mxCell>
                <mxCell id="P8OrgJ7ncMr9i-wIuGdN-19" value="&lt;font color=&quot;#000000&quot; style=&quot;font-size: 12px;&quot;&gt;send data to 192.168.2.114:5678&lt;/font&gt;" style="text;html=1;strokeColor=none;fillColor=none;align=left;verticalAlign=middle;whiteSpace=wrap;rounded=0;fontSize=13;" vertex="1" parent="1">
                    <mxGeometry x="425" y="210" width="100" height="39" as="geometry"/>
                </mxCell>
                <mxCell id="P8OrgJ7ncMr9i-wIuGdN-21" style="edgeStyle=orthogonalEdgeStyle;html=1;exitX=0.5;exitY=1;exitDx=0;exitDy=0;strokeColor=#001DBC;strokeWidth=2;fontSize=14;fontColor=#000000;endSize=2;fillColor=#0050ef;" edge="1" parent="1">
                    <mxGeometry relative="1" as="geometry">
                        <mxPoint x="422" y="381" as="targetPoint"/>
                        <mxPoint x="422" y="321" as="sourcePoint"/>
                    </mxGeometry>
                </mxCell>
                <mxCell id="P8OrgJ7ncMr9i-wIuGdN-25" value="&lt;font style=&quot;font-size: 12px;&quot; color=&quot;#000000&quot;&gt;application B&lt;br&gt;（listen on port 5678)&lt;br&gt;&lt;/font&gt;" style="rounded=0;whiteSpace=wrap;html=1;strokeColor=#000000;fillColor=#FFFFFF;strokeWidth=2;" vertex="1" parent="1">
                    <mxGeometry x="140" y="81" width="140" height="40" as="geometry"/>
                </mxCell>
            </root>
        </mxGraphModel>
    </diagram>
    <diagram id="7ZWGpXylOXZSE3-nQbSH" name="Original">
        <mxGraphModel dx="993" dy="731" grid="1" gridSize="10" guides="1" tooltips="1" connect="1" arrows="1" fold="1" page="1" pageScale="1" pageWidth="827" pageHeight="1169" background="#ffffff" math="0" shadow="0">
            <root>
                <mxCell id="0"/>
                <mxCell id="1" parent="0"/>
                <mxCell id="27" value="" style="rounded=0;whiteSpace=wrap;html=1;strokeColor=none;strokeWidth=2;fontSize=18;fontColor=#000000;fillColor=#FFFFFF;" parent="1" vertex="1">
                    <mxGeometry x="40" y="40" width="560" height="500" as="geometry"/>
                </mxCell>
                <mxCell id="4" style="edgeStyle=none;html=1;exitX=0.5;exitY=1;exitDx=0;exitDy=0;entryX=0.5;entryY=0;entryDx=0;entryDy=0;fontSize=14;fontColor=#000000;strokeColor=#000000;strokeWidth=2;endSize=2;" parent="1" source="2" target="3" edge="1">
                    <mxGeometry relative="1" as="geometry"/>
                </mxCell>
                <mxCell id="2" value="&lt;font style=&quot;font-size: 14px;&quot; color=&quot;#000000&quot;&gt;Application A&lt;/font&gt;" style="rounded=0;whiteSpace=wrap;html=1;strokeColor=#000000;fillColor=#FFFFFF;strokeWidth=2;" parent="1" vertex="1">
                    <mxGeometry x="80" y="80" width="120" height="40" as="geometry"/>
                </mxCell>
                <mxCell id="6" style="edgeStyle=none;html=1;exitX=0.5;exitY=1;exitDx=0;exitDy=0;strokeColor=#000000;strokeWidth=2;fontSize=14;fontColor=#000000;endSize=2;entryX=0.188;entryY=-0.017;entryDx=0;entryDy=0;entryPerimeter=0;" parent="1" source="3" target="5" edge="1">
                    <mxGeometry relative="1" as="geometry"/>
                </mxCell>
                <mxCell id="3" value="&lt;font style=&quot;font-size: 14px;&quot; color=&quot;#000000&quot;&gt;Socket A&lt;/font&gt;" style="rounded=0;whiteSpace=wrap;html=1;strokeColor=#000000;fillColor=#FFFFFF;strokeWidth=2;" parent="1" vertex="1">
                    <mxGeometry x="80" y="160" width="120" height="40" as="geometry"/>
                </mxCell>
                <mxCell id="5" value="&lt;font style=&quot;font-size: 14px;&quot; color=&quot;#000000&quot;&gt;Network Protocol Stack(Linux Kernel)&lt;/font&gt;" style="rounded=0;whiteSpace=wrap;html=1;strokeColor=#000000;fillColor=#FFFFFF;strokeWidth=2;" parent="1" vertex="1">
                    <mxGeometry x="80" y="260" width="320" height="60" as="geometry"/>
                </mxCell>
                <mxCell id="9" style="edgeStyle=none;html=1;exitX=0.5;exitY=1;exitDx=0;exitDy=0;entryX=0.5;entryY=0;entryDx=0;entryDy=0;strokeColor=#000000;strokeWidth=2;fontSize=14;fontColor=#000000;endSize=2;" parent="1" source="7" target="8" edge="1">
                    <mxGeometry relative="1" as="geometry"/>
                </mxCell>
                <mxCell id="7" value="&lt;font style=&quot;font-size: 14px;&quot; color=&quot;#000000&quot;&gt;Application B&lt;/font&gt;" style="rounded=0;whiteSpace=wrap;html=1;strokeColor=#000000;fillColor=#FFFFFF;strokeWidth=2;" parent="1" vertex="1">
                    <mxGeometry x="280" y="80" width="120" height="40" as="geometry"/>
                </mxCell>
                <mxCell id="10" style="edgeStyle=none;html=1;exitX=0.5;exitY=1;exitDx=0;exitDy=0;strokeColor=#000000;strokeWidth=2;fontSize=14;fontColor=#000000;endSize=2;" parent="1" source="8" edge="1">
                    <mxGeometry relative="1" as="geometry">
                        <mxPoint x="340" y="260" as="targetPoint"/>
                    </mxGeometry>
                </mxCell>
                <mxCell id="8" value="&lt;font style=&quot;font-size: 14px;&quot; color=&quot;#000000&quot;&gt;Socket A&lt;/font&gt;" style="rounded=0;whiteSpace=wrap;html=1;strokeColor=#000000;fillColor=#FFFFFF;strokeWidth=2;" parent="1" vertex="1">
                    <mxGeometry x="280" y="160" width="120" height="40" as="geometry"/>
                </mxCell>
                <mxCell id="40" style="edgeStyle=orthogonalEdgeStyle;html=1;exitX=0.5;exitY=1;exitDx=0;exitDy=0;entryX=0.5;entryY=0;entryDx=0;entryDy=0;strokeColor=#000000;fontSize=14;strokeWidth=2;" parent="1" source="11" target="7" edge="1">
                    <mxGeometry relative="1" as="geometry">
                        <Array as="points">
                            <mxPoint x="340" y="440"/>
                            <mxPoint x="540" y="440"/>
                            <mxPoint x="540" y="60"/>
                            <mxPoint x="340" y="60"/>
                        </Array>
                    </mxGeometry>
                </mxCell>
                <mxCell id="11" value="&lt;font style=&quot;font-size: 14px;&quot; color=&quot;#000000&quot;&gt;tun0 driver&lt;br&gt;(10.0.0.1)&lt;br&gt;&lt;/font&gt;" style="rounded=0;whiteSpace=wrap;html=1;strokeColor=#000000;fillColor=#FFFFFF;strokeWidth=2;" parent="1" vertex="1">
                    <mxGeometry x="280" y="380" width="120" height="40" as="geometry"/>
                </mxCell>
                <mxCell id="38" style="edgeStyle=orthogonalEdgeStyle;html=1;exitX=0.5;exitY=0;exitDx=0;exitDy=0;entryX=1;entryY=0.5;entryDx=0;entryDy=0;strokeColor=#000000;" parent="1" source="12" target="7" edge="1">
                    <mxGeometry relative="1" as="geometry"/>
                </mxCell>
                <mxCell id="12" value="&lt;font style=&quot;font-size: 14px;&quot; color=&quot;#000000&quot;&gt;/dev/net/tun&lt;/font&gt;" style="rounded=0;whiteSpace=wrap;html=1;strokeColor=#000000;fillColor=#FFFFFF;strokeWidth=2;" parent="1" vertex="1">
                    <mxGeometry x="420" y="160" width="100" height="40" as="geometry"/>
                </mxCell>
                <mxCell id="23" style="edgeStyle=orthogonalEdgeStyle;html=1;exitX=0.5;exitY=1;exitDx=0;exitDy=0;strokeColor=#000000;strokeWidth=2;fontSize=14;fontColor=#000000;endSize=2;" parent="1" source="19" edge="1">
                    <mxGeometry relative="1" as="geometry">
                        <mxPoint x="140" y="480" as="targetPoint"/>
                    </mxGeometry>
                </mxCell>
                <mxCell id="19" value="&lt;font style=&quot;font-size: 14px;&quot; color=&quot;#000000&quot;&gt;enp0s3 driver&lt;br&gt;(192.168.2.114)&lt;br&gt;&lt;/font&gt;" style="rounded=0;whiteSpace=wrap;html=1;strokeColor=#000000;fillColor=#FFFFFF;strokeWidth=2;" parent="1" vertex="1">
                    <mxGeometry x="80" y="380" width="120" height="40" as="geometry"/>
                </mxCell>
                <mxCell id="22" value="" style="endArrow=none;dashed=1;html=1;strokeWidth=2;strokeColor=#000000;fontSize=14;fontColor=#000000;endSize=2;" parent="1" edge="1">
                    <mxGeometry width="50" height="50" relative="1" as="geometry">
                        <mxPoint x="60" y="460" as="sourcePoint"/>
                        <mxPoint x="580" y="460" as="targetPoint"/>
                    </mxGeometry>
                </mxCell>
                <mxCell id="26" value="&lt;span style=&quot;font-size: 18px;&quot;&gt;Physical Network&lt;/span&gt;" style="text;html=1;strokeColor=none;fillColor=none;align=center;verticalAlign=middle;whiteSpace=wrap;rounded=0;strokeWidth=2;fontSize=14;fontColor=#000000;" parent="1" vertex="1">
                    <mxGeometry x="48" y="490" width="190" height="30" as="geometry"/>
                </mxCell>
                <mxCell id="32" value="&lt;font color=&quot;#000000&quot; style=&quot;font-size: 13px;&quot;&gt;192.168.2.114&lt;/font&gt;" style="text;html=1;strokeColor=none;fillColor=none;align=left;verticalAlign=middle;whiteSpace=wrap;rounded=0;fontSize=13;" parent="1" vertex="1">
                    <mxGeometry x="148" y="204" width="100" height="30" as="geometry"/>
                </mxCell>
                <mxCell id="39" value="&lt;font color=&quot;#000000&quot; style=&quot;font-size: 14px;&quot;&gt;open&lt;/font&gt;" style="text;html=1;strokeColor=none;fillColor=none;align=right;verticalAlign=middle;whiteSpace=wrap;rounded=0;fontSize=13;" parent="1" vertex="1">
                    <mxGeometry x="420" y="119" width="50" height="40" as="geometry"/>
                </mxCell>
                <mxCell id="41" style="edgeStyle=orthogonalEdgeStyle;html=1;exitX=0.5;exitY=1;exitDx=0;exitDy=0;strokeColor=#000000;strokeWidth=2;fontSize=14;fontColor=#000000;endSize=2;" parent="1" edge="1">
                    <mxGeometry relative="1" as="geometry">
                        <mxPoint x="142" y="380" as="targetPoint"/>
                        <mxPoint x="142" y="320" as="sourcePoint"/>
                    </mxGeometry>
                </mxCell>
                <mxCell id="42" style="edgeStyle=orthogonalEdgeStyle;html=1;exitX=0.5;exitY=1;exitDx=0;exitDy=0;strokeColor=#000000;strokeWidth=2;fontSize=14;fontColor=#000000;endSize=2;" parent="1" edge="1">
                    <mxGeometry relative="1" as="geometry">
                        <mxPoint x="340" y="380" as="targetPoint"/>
                        <mxPoint x="340" y="320" as="sourcePoint"/>
                    </mxGeometry>
                </mxCell>
                <mxCell id="52" style="edgeStyle=orthogonalEdgeStyle;html=1;strokeColor=#FF0000;fontSize=14;strokeWidth=2;exitX=0.188;exitY=0;exitDx=0;exitDy=0;exitPerimeter=0;entryX=0.813;entryY=0.983;entryDx=0;entryDy=0;entryPerimeter=0;dashed=1;" parent="1" source="5" target="5" edge="1">
                    <mxGeometry relative="1" as="geometry">
                        <mxPoint x="580" y="560" as="sourcePoint"/>
                        <mxPoint x="460" y="260" as="targetPoint"/>
                        <Array as="points">
                            <mxPoint x="140" y="280"/>
                            <mxPoint x="340" y="280"/>
                        </Array>
                    </mxGeometry>
                </mxCell>
                <mxCell id="53" style="edgeStyle=orthogonalEdgeStyle;html=1;strokeColor=#001DBC;fontSize=14;strokeWidth=2;exitX=0.813;exitY=0;exitDx=0;exitDy=0;exitPerimeter=0;dashed=1;fillColor=#0050ef;" parent="1" source="5" edge="1">
                    <mxGeometry relative="1" as="geometry">
                        <mxPoint x="150.16000000000008" y="270" as="sourcePoint"/>
                        <mxPoint x="143" y="320" as="targetPoint"/>
                        <Array as="points">
                            <mxPoint x="340" y="270"/>
                            <mxPoint x="143" y="270"/>
                        </Array>
                    </mxGeometry>
                </mxCell>
            </root>
        </mxGraphModel>
    </diagram>
</mxfile>